name analog
datacolumns 19
datarows 18
range 0.3175 0.326
endheader
time	ground_force_vx	ground_force_vy	ground_force_vz	ground_force_px	ground_force_py	ground_force_pz	l_ground_force_vx	l_ground_force_vy	l_ground_force_vz	l_ground_force_px	l_ground_force_py	l_ground_force_pz	ground_torque_x	ground_torque_y	ground_torque_z	l_ground_torque_x	l_ground_torque_y	l_ground_torque_z
0.3175	-0.0	-0.0	-0.0	-3.211578369140625	59.71736907958984	-376.7369079589844	-3.117365598678589	-62.455867767333984	-447.3564147949219	-0.0	-0.0	-0.0	-0.0	-0.0	-0.0	103863.0078125	-9607.1826171875	-4755.97509765625
0.318	-0.0	-0.0	-0.0	-3.313244581222534	59.499759674072266	-375.0198059082031	-3.0909337997436523	-62.59526443481445	-449.5601501464844	-0.0	-0.0	-0.0	-0.0	-0.0	-0.0	103995.015625	-9572.4580078125	-4776.8447265625
0.3185	-0.0	-0.0	-0.0	-3.504048585891724	59.37325668334961	-375.4794616699219	-3.764863967895508	-63.2524299621582	-449.8050842285156	-0.0	-0.0	-0.0	-0.0	-0.0	-0.0	104238.8359375	-9834.2734375	-4816.0087890625
0.319	-0.0	-0.0	-0.0	-3.912879705429077	59.23460388183594	-376.5878601074219	-4.03114128112793	-63.1623420715332	-450.852294921875	-0.0	-0.0	-0.0	-0.0	-0.0	-0.0	104498.640625	-9798.7783203125	-4841.05517578125
0.3195	-0.0	-0.0	-0.0	-3.9349093437194815	59.105804443359375	-375.1856994628906	-4.144680500030518	-63.06168365478516	-451.9080505371094	-0.0	-0.0	-0.0	-0.0	-0.0	-0.0	104569.015625	-9770.98828125	-4943.19580078125
0.32	-0.0	-0.0	-0.0	-4.168252468109131	59.16731643676758	-377.2567138671875	-3.9402554035186768	-63.491024017333984	-452.6460571289063	-0.0	-0.0	-0.0	-0.0	-0.0	-0.0	104791.28125	-9691.6533203125	-5014.853515625
0.3205	-0.0	-0.0	-0.0	-4.706808567047119	59.296268463134766	-376.37982177734375	-4.19398832321167	-63.46391677856445	-453.6447143554688	-0.0	-0.0	-0.0	-0.0	-0.0	-0.0	105025.078125	-9931.6708984375	-5129.537109375
0.321	-0.0	-0.0	-0.0	-4.233070373535156	58.83831405639648	-376.088134765625	-4.637491226196289	-63.64046096801758	-454.547119140625	-0.0	-0.0	-0.0	-0.0	-0.0	-0.0	105349.328125	-9847.6982421875	-5151.341796875
0.3215	-0.0	-0.0	-0.0	-4.359092712402344	58.97990417480469	-374.1627197265625	-5.132996559143066	-63.76825714111328	-454.6435241699219	-0.0	-0.0	-0.0	-0.0	-0.0	-0.0	105383.8359375	-9716.6181640625	-5347.107421875
0.322	-0.0	-0.0	-0.0	-4.346943378448486	58.82606506347656	-375.4785461425781	-5.616527080535889	-64.26177215576172	-454.944580078125	-0.0	-0.0	-0.0	-0.0	-0.0	-0.0	105324.6796875	-9777.44140625	-5389.50830078125
0.3225	-0.0	-0.0	-0.0	-5.044442176818848	58.72478485107422	-375.333984375	-5.552268028259277	-63.98125076293945	-455.3416137695313	-0.0	-0.0	-0.0	-0.0	-0.0	-0.0	105348.2109375	-9839.9697265625	-5341.09619140625
0.323	-0.0	-0.0	-0.0	-5.133507251739502	58.749053955078125	-374.5147705078125	-5.536471366882324	-63.96906280517578	-455.1833801269531	-0.0	-0.0	-0.0	-0.0	-0.0	-0.0	105602.4140625	-9804.8583984375	-5508.03271484375
0.3235	-0.0	-0.0	-0.0	-5.205904960632324	58.64030075073242	-375.02923583984375	-5.86700963973999	-63.86862564086914	-454.7382507324219	-0.0	-0.0	-0.0	-0.0	-0.0	-0.0	105701.546875	-10124.634765625	-5486.66943359375
0.324	-0.0	-0.0	-0.0	-5.526295185089111	58.85492706298828	-375.87896728515625	-6.01605749130249	-64.03741455078125	-454.9610900878906	-0.0	-0.0	-0.0	-0.0	-0.0	-0.0	105341.9296875	-9955.6142578125	-5567.71923828125
0.3245	-0.0	-0.0	-0.0	-6.273804187774658	58.71990966796875	-378.2279357910156	-6.298465728759766	-63.67993927001953	-455.6428833007813	-0.0	-0.0	-0.0	-0.0	-0.0	-0.0	105493.78125	-9912.814453125	-5542.1904296875
0.325	-0.0	-0.0	-0.0	-5.899885654449463	58.63056564331055	-376.3948669433594	-6.411176681518555	-63.83268737792969	-454.6898498535156	-0.0	-0.0	-0.0	-0.0	-0.0	-0.0	105242.9765625	-9760.4375	-5609.650390625
0.3255	-0.0	-0.0	-0.0	-5.632219314575195	58.44014739990234	-374.7239379882813	-5.802096843719482	-63.35047912597656	-453.340087890625	-0.0	-0.0	-0.0	-0.0	-0.0	-0.0	105170.671875	-10304.1123046875	-5703.7099609375
0.326	-0.0	-0.0	-0.0	-6.32201623916626	58.53483963012695	-374.2290344238281	-6.516844749450684	-63.25021362304688	-453.8031311035156	-0.0	-0.0	-0.0	-0.0	-0.0	-0.0	105213.6796875	-10099.6796875	-5465.18798828125
